<?xml version="1.0" standalone="no"?>
<!DOCTYPE svg PUBLIC "-//W3C//DTD SVG 20010904//EN"
 "http://www.w3.org/TR/2001/REC-SVG-20010904/DTD/svg10.dtd">
<svg version="1.0" xmlns="http://www.w3.org/2000/svg"
 width="2494.000000pt" height="2500.000000pt" viewBox="0 0 2494.000000 2500.000000"
 preserveAspectRatio="xMidYMid meet">

<g transform="translate(0.000000,2500.000000) scale(0.100000,-0.100000)"
fill="#000000" stroke="none">
<path d="M12090 24994 c-2365 -75 -4604 -793 -6550 -2099 -1585 -1064 -2934
-2511 -3885 -4165 -802 -1395 -1319 -2916 -1539 -4520 -81 -590 -111 -1047
-110 -1670 1 -488 10 -724 44 -1125 181 -2116 887 -4131 2058 -5870 666 -989
1402 -1812 2322 -2596 1453 -1238 3192 -2129 5045 -2584 772 -190 1516 -299
2355 -347 288 -16 1075 -16 1335 0 653 41 1181 109 1775 228 1445 290 2812
830 4070 1607 1309 809 2494 1896 3436 3152 167 222 257 348 393 553 1182
1770 1883 3787 2056 5912 52 644 52 1369 0 2035 -125 1594 -558 3162 -1262
4570 -719 1436 -1667 2675 -2888 3771 -949 852 -2074 1579 -3250 2099 -1224
541 -2580 890 -3910 1005 -409 35 -1116 56 -1495 44z m1215 -158 c1441 -109
2722 -418 4005 -966 1498 -640 2900 -1614 4044 -2808 2023 -2114 3219 -4824
3416 -7742 135 -2006 -207 -3959 -1017 -5805 -89 -204 -359 -751 -474 -960
-45 -82 -152 -267 -238 -410 -633 -1058 -1413 -2003 -2352 -2851 -1204 -1087
-2690 -1964 -4217 -2488 -1050 -360 -2072 -564 -3247 -648 -243 -17 -1277 -17
-1515 0 -1159 84 -2125 274 -3169 622 -1183 395 -2386 1025 -3398 1781 -524
391 -906 722 -1369 1184 -745 745 -1354 1522 -1878 2399 -961 1607 -1525 3331
-1706 5216 -43 451 -64 1318 -41 1745 81 1552 418 2975 1038 4390 104 237 360
750 496 995 942 1692 2252 3130 3847 4224 1333 915 2839 1557 4435 1891 639
134 1359 223 2015 249 218 9 1137 -4 1325 -18z"/>
<path d="M11845 24473 c-16 -1 -53 -6 -80 -8 l-51 -6 33 -382 c18 -210 32
-397 31 -416 -3 -32 -22 -8 -288 354 -157 214 -287 392 -290 396 -5 6 -240 -9
-248 -16 -3 -3 100 -1258 104 -1263 3 -4 226 17 231 22 2 2 -12 185 -31 407
-19 222 -33 405 -32 407 2 1 129 -167 282 -375 154 -207 284 -382 289 -389 8
-9 38 -9 135 -1 l125 12 -3 35 c-7 101 -93 1123 -98 1173 l-6 57 -36 -1 c-21
-1 -50 -4 -67 -6z"/>
<path d="M12505 23850 c-147 -341 -266 -622 -264 -624 2 -2 62 -5 134 -7 l130
-4 57 140 57 140 58 -2 c32 -1 147 -5 255 -9 l197 -6 49 -147 49 -146 136 -3
c75 -1 137 1 136 5 0 4 -102 294 -227 643 l-227 635 -136 3 -136 3 -268 -621z
m466 98 c39 -123 74 -229 77 -237 4 -12 -22 -13 -162 -9 -91 3 -169 7 -171 10
-5 4 175 458 181 458 2 0 36 -100 75 -222z"/>
<path d="M13605 24427 c-11 -36 -26 -190 -19 -197 5 -4 89 -18 187 -31 l179
-23 -6 -30 c-21 -125 -137 -1008 -132 -1013 7 -8 169 -32 212 -33 38 0 25 -65
109 550 37 266 68 486 69 487 2 2 83 -8 182 -21 98 -14 182 -22 185 -18 9 10
32 192 25 199 -3 4 -212 35 -464 69 -251 35 -472 65 -490 68 -21 3 -34 0 -37
-7z"/>
<path d="M14900 24225 c0 -4 -253 -1171 -264 -1216 -3 -14 18 -21 117 -43 66
-14 123 -24 125 -21 8 8 273 1228 268 1232 -5 6 -214 53 -232 53 -8 0 -14 -2
-14 -5z"/>
<path d="M9465 24100 c-429 -112 -450 -119 -447 -140 3 -31 303 -1182 311
-1196 4 -8 153 27 466 108 253 66 461 121 463 123 3 3 -47 197 -52 202 -1 1
-155 -37 -342 -86 -295 -77 -340 -86 -345 -72 -17 42 -81 312 -76 317 3 3 138
40 300 82 163 43 298 80 301 83 5 5 -40 189 -49 198 -3 2 -140 -31 -305 -74
-165 -43 -303 -75 -307 -71 -8 7 -74 258 -69 263 1 2 148 41 325 87 178 47
325 87 328 89 3 4 -45 198 -51 203 0 1 -203 -52 -451 -116z"/>
<path d="M15743 23966 c-219 -56 -382 -244 -454 -524 -74 -292 17 -542 250
-683 123 -74 313 -117 440 -99 202 29 352 145 448 346 66 139 86 226 87 374 1
144 -18 216 -83 317 -104 161 -316 271 -536 279 -62 2 -120 -1 -152 -10z m291
-236 c196 -67 270 -246 201 -484 -50 -171 -134 -291 -238 -337 -78 -35 -191
-33 -272 4 -78 36 -137 95 -171 171 -51 112 -35 273 42 436 57 120 118 182
213 216 55 20 159 17 225 -6z"/>
<path d="M8262 23729 c-182 -31 -366 -158 -441 -307 -82 -162 -81 -339 1 -559
47 -125 91 -195 173 -278 153 -155 365 -203 573 -132 245 85 372 255 372 499
l0 88 -52 -5 c-29 -2 -87 -7 -128 -10 l-76 -6 0 -82 c-1 -131 -48 -213 -152
-263 -76 -37 -175 -39 -244 -5 -137 66 -278 340 -278 541 0 163 130 291 294
291 79 0 128 -20 183 -73 l42 -41 102 69 c55 38 103 72 105 76 8 12 -112 123
-163 151 -56 30 -166 57 -223 56 -19 -1 -59 -5 -88 -10z"/>
<path d="M16775 23019 c-143 -308 -261 -567 -263 -575 -4 -15 183 -108 203
-101 5 3 86 169 179 371 94 201 171 365 172 363 3 -3 114 -926 114 -946 0 -11
228 -126 235 -119 2 2 119 253 260 558 141 305 261 563 266 573 8 15 -5 24
-97 67 -59 28 -108 49 -110 48 -1 -2 -79 -170 -174 -373 -94 -204 -174 -373
-178 -377 -4 -4 -31 205 -61 465 -29 260 -55 480 -58 491 -3 12 -43 36 -109
67 -58 27 -108 49 -112 49 -4 0 -124 -252 -267 -561z"/>
<path d="M7153 23227 c-57 -28 -103 -55 -103 -60 0 -9 547 -1117 555 -1126 6
-5 225 100 225 109 1 16 -557 1130 -565 1129 -5 0 -56 -23 -112 -52z"/>
<path d="M18130 22339 c-294 -220 -536 -404 -538 -408 -3 -8 202 -141 217
-141 5 0 57 39 117 86 60 47 114 88 120 90 14 6 428 -252 432 -269 1 -6 -11
-76 -26 -154 l-29 -143 114 -71 c63 -39 116 -69 119 -66 3 3 59 304 124 668
93 519 117 666 107 675 -18 17 -207 134 -215 134 -4 -1 -248 -181 -542 -401z
m449 -156 c-27 -131 -50 -241 -52 -246 -1 -4 -68 34 -150 85 -81 50 -146 92
-145 93 50 41 390 305 392 305 2 0 -18 -107 -45 -237z"/>
<path d="M12175 22723 c-823 -20 -1770 -169 -2565 -404 -750 -222 -1424 -505
-2110 -887 -1654 -921 -3041 -2318 -3970 -3997 -103 -187 -306 -594 -390 -786
-508 -1156 -788 -2324 -861 -3589 -15 -265 -6 -1042 15 -1310 88 -1108 307
-2058 701 -3050 615 -1548 1617 -2940 2895 -4021 1517 -1283 3360 -2091 5320
-2333 730 -90 1526 -99 2255 -25 751 76 1422 214 2129 441 813 259 1635 648
2371 1121 668 429 1253 907 1809 1479 l215 221 -13 31 c-7 17 -161 403 -342
858 -181 456 -332 828 -336 828 -4 0 -44 -48 -90 -107 -539 -698 -1267 -1368
-2028 -1868 -1148 -756 -2413 -1214 -3765 -1365 -546 -60 -1221 -66 -1755 -14
-833 80 -1583 261 -2355 567 -941 372 -1847 939 -2600 1628 -399 365 -778 783
-1093 1204 -864 1158 -1414 2478 -1621 3896 -62 423 -81 679 -88 1184 -7 539
17 904 93 1395 231 1495 871 2938 1816 4093 278 340 706 786 998 1041 1469
1283 3231 2006 5180 2126 212 13 777 13 990 0 635 -39 1187 -125 1735 -271
338 -90 877 -279 1140 -400 64 -29 68 -33 45 -39 -1538 -467 -2942 -1062
-4165 -1768 -2098 -1210 -3643 -2686 -4663 -4452 -167 -289 -380 -717 -477
-957 -27 -67 -79 -146 -282 -425 -479 -659 -631 -895 -823 -1278 -92 -184
-200 -445 -244 -591 -21 -70 -27 -116 -32 -245 -10 -223 14 -374 88 -551 26
-63 42 -84 121 -159 110 -105 263 -208 373 -251 81 -32 215 -60 233 -48 12 7
79 -20 105 -43 10 -9 27 -36 38 -60 44 -97 303 -268 551 -361 307 -117 652
-169 1190 -180 l327 -6 108 -106 c379 -371 588 -514 827 -564 64 -13 325 -22
325 -11 0 2 -97 230 -215 507 -118 277 -215 508 -215 514 0 6 48 40 108 77
331 205 619 329 912 394 112 25 145 28 310 28 214 0 297 -15 473 -84 l104 -40
6 -73 c8 -92 38 -189 90 -292 54 -109 91 -161 277 -396 182 -228 241 -312 295
-419 76 -152 105 -270 105 -434 0 -102 -2 -118 -26 -162 -35 -66 -114 -162
-216 -260 -64 -63 -96 -86 -141 -103 -95 -35 -146 -44 -252 -43 -186 1 -358
48 -713 196 -186 77 -281 110 -291 101 -2 -3 -6 -31 -8 -63 -5 -74 51 -241
122 -362 67 -114 235 -284 365 -369 111 -74 308 -172 469 -235 89 -34 117 -50
124 -68 13 -36 35 -145 77 -388 38 -219 66 -336 110 -452 38 -103 239 -295
446 -426 202 -129 506 -241 764 -282 41 -7 118 -24 170 -38 86 -23 113 -26
275 -26 170 0 186 2 300 32 139 37 329 125 420 196 33 26 103 76 157 112 233
158 362 359 404 636 28 180 9 468 -45 716 -44 195 -55 317 -56 587 0 274 7
357 52 570 79 380 225 678 484 987 22 27 27 39 17 43 -7 2 -146 32 -308 65
-483 100 -749 168 -960 247 -316 118 -553 260 -753 452 -137 132 -171 223
-170 461 0 149 25 321 70 481 21 78 25 112 24 204 -3 129 -22 225 -57 278 -36
55 -45 45 -18 -20 29 -72 29 -86 3 -141 l-22 -44 -30 57 c-24 43 -44 65 -86
92 -213 136 -385 318 -471 497 -75 159 -101 298 -102 562 -1 330 60 551 212
773 75 109 250 281 377 371 l92 64 -47 12 c-201 52 -286 122 -387 319 l-48 92
6 134 c6 161 27 242 97 384 106 214 280 401 680 735 383 320 520 467 618 665
83 169 98 330 46 493 -21 63 -43 79 -85 62 -42 -18 -89 -7 -188 42 -94 46
-184 126 -214 190 -21 45 -23 171 -2 248 19 73 77 185 123 238 l37 43 90 -35
89 -34 41 77 c63 117 105 178 267 394 82 109 176 239 209 290 67 101 147 260
175 347 36 109 252 388 469 605 177 177 388 349 586 478 447 290 949 503 1594
675 833 223 1226 278 2337 330 l147 7 -187 156 c-334 278 -621 492 -942 703
-1761 1160 -3771 1732 -5895 1679z m-8084 -6007 c272 -148 496 -271 498 -273
2 -2 -25 -65 -62 -141 -417 -867 -702 -1858 -811 -2822 -42 -368 -50 -520 -50
-990 -1 -475 5 -613 45 -980 147 -1369 627 -2716 1370 -3845 65 -99 115 -183
111 -186 -17 -16 -913 -679 -917 -679 -9 0 -255 379 -360 553 -837 1398 -1309
2955 -1396 4612 -22 425 -3 1140 41 1550 118 1096 399 2126 850 3120 98 217
169 357 179 353 4 -2 230 -124 502 -272z m4903 -2658 l219 -32 18 -41 c51
-116 50 -255 -4 -520 -20 -93 -38 -190 -42 -214 l-7 -43 -84 4 c-84 4 -124 22
-124 54 0 7 -18 41 -39 74 -44 68 -79 161 -87 236 -8 64 17 164 57 228 16 27
28 54 25 61 -2 7 -43 57 -90 113 -47 55 -86 103 -86 106 0 9 13 8 244 -26z"/>
<path d="M6100 22626 c-58 -35 -104 -68 -102 -75 2 -9 628 -1060 637 -1069 2
-2 648 384 742 444 l22 14 -53 88 c-29 48 -58 86 -63 85 -6 -1 -123 -70 -260
-152 -138 -83 -257 -153 -266 -157 -11 -4 -79 101 -277 433 -145 241 -266 441
-269 445 -4 4 -54 -21 -111 -56z"/>
<path d="M5400 22124 c-126 -34 -245 -108 -347 -217 -159 -171 -195 -394 -98
-622 33 -78 129 -211 204 -285 126 -123 258 -180 416 -180 139 0 258 46 388
149 162 129 237 274 238 456 1 91 -11 151 -45 235 -62 153 -229 343 -362 412
-124 65 -272 85 -394 52z m238 -260 c79 -39 181 -140 240 -236 103 -171 96
-341 -19 -459 -89 -91 -217 -128 -331 -95 -126 36 -261 167 -336 324 -82 172
-39 337 114 443 64 43 109 57 190 58 62 1 80 -3 142 -35z"/>
<path d="M19190 21633 c-212 -267 -385 -489 -385 -493 0 -7 341 -283 625 -507
l66 -51 66 82 66 82 -249 199 c-137 109 -245 203 -242 208 3 6 147 187 319
404 172 216 315 397 318 401 4 7 -185 163 -195 162 -2 -1 -177 -220 -389 -487z"/>
<path d="M20112 20887 c-243 -243 -442 -447 -442 -452 0 -6 152 -162 338 -348
l337 -337 75 75 75 75 -253 253 -252 252 123 123 122 122 225 -225 225 -225
75 75 75 75 -225 225 -225 225 100 100 100 100 242 -242 243 -243 75 75 c41
41 74 77 72 80 -1 3 -151 152 -332 332 l-330 328 -443 -443z"/>
<path d="M4327 21206 c-77 -21 -146 -77 -380 -306 l-220 -216 448 -452 449
-453 90 90 91 91 -169 169 -169 170 134 139 c90 93 145 159 167 200 85 159 57
316 -81 455 -103 103 -242 147 -360 113z m155 -281 c41 -28 78 -96 78 -145 0
-19 -9 -52 -20 -75 -23 -47 -204 -245 -224 -245 -7 0 -69 57 -136 127 l-124
126 105 99 c57 54 120 107 139 118 52 29 135 27 182 -5z"/>
<path d="M3096 18836 c-141 -52 -170 -231 -51 -322 62 -47 168 -45 226 3 62
52 84 138 54 211 -40 93 -139 140 -229 108z"/>
<path d="M22006 18836 c-197 -72 -145 -356 66 -356 151 0 235 183 136 296 -55
62 -132 85 -202 60z"/>
<path d="M23193 17362 l-92 -37 130 -320 c71 -176 129 -325 129 -331 0 -11
-307 -141 -314 -133 -2 2 -57 135 -121 294 -65 160 -118 291 -119 291 0 1 -45
-16 -98 -38 l-97 -40 19 -47 c10 -25 61 -154 114 -286 53 -132 96 -245 96
-251 0 -10 -250 -119 -255 -111 -1 1 -57 141 -125 310 -68 169 -127 310 -132
313 -5 3 -51 -11 -102 -31 l-93 -37 172 -431 c95 -237 177 -433 182 -434 7 -3
810 316 1140 452 l32 14 -178 442 c-97 244 -181 444 -186 445 -6 2 -51 -14
-102 -34z"/>
<path d="M1612 17332 c-34 -65 -206 -527 -219 -585 -55 -262 100 -491 419
-615 358 -140 628 -69 759 199 39 77 219 528 219 546 0 5 -242 106 -537 223
-709 282 -631 253 -641 232z m517 -457 c356 -141 372 -149 367 -171 -4 -13
-29 -77 -57 -143 -82 -194 -142 -244 -289 -243 -138 1 -381 101 -475 196 -91
91 -94 163 -13 368 22 57 44 114 49 127 6 16 15 22 27 19 10 -3 186 -72 391
-153z"/>
<path d="M23639 16148 c-219 -237 -266 -299 -296 -395 l-17 -53 -30 52 c-40
70 -106 135 -164 161 -37 18 -66 22 -137 22 -80 0 -97 -4 -157 -32 -75 -35
-137 -92 -169 -155 -27 -52 -36 -158 -20 -243 13 -72 171 -657 180 -667 5 -5
1147 303 1206 326 11 4 7 29 -17 118 -16 62 -33 116 -37 120 -4 5 -119 -23
-256 -61 -138 -38 -251 -67 -253 -66 -10 9 -32 117 -32 158 0 83 9 97 244 372
66 77 125 147 132 155 11 13 6 40 -26 154 -21 76 -41 140 -43 142 -2 3 -51
-46 -108 -108z m-532 -488 c49 -30 72 -83 137 -318 23 -83 30 -125 22 -127
-80 -26 -297 -81 -300 -76 -17 27 -96 355 -96 397 0 86 63 143 160 144 28 0
57 -8 77 -20z"/>
<path d="M1148 16063 c-11 -19 -71 -233 -67 -236 9 -8 1202 -367 1206 -363 11
11 71 231 65 237 -4 4 -270 87 -592 185 -322 97 -590 179 -596 181 -7 2 -14 1
-16 -4z"/>
<path d="M970 15493 c0 -5 -11 -60 -24 -123 -14 -63 -24 -116 -23 -117 2 -1
111 -25 242 -53 132 -28 247 -54 257 -58 15 -6 15 -13 -3 -82 -11 -41 -27 -86
-37 -100 -34 -47 -107 -85 -342 -179 -129 -52 -237 -96 -238 -97 -7 -5 -64
-286 -59 -290 7 -7 334 114 432 160 51 24 112 63 141 89 l51 46 7 -69 c13
-143 71 -237 179 -289 214 -104 417 -26 495 192 27 74 169 704 160 712 -3 3
-1219 265 -1231 265 -4 0 -7 -3 -7 -7z m827 -429 c73 -15 137 -30 143 -34 12
-7 -61 -354 -85 -400 -56 -109 -222 -102 -281 12 -20 39 -18 70 23 274 30 153
39 184 52 180 9 -3 75 -17 148 -32z"/>
<path d="M23485 14713 c-335 -64 -612 -117 -614 -119 -6 -5 36 -234 44 -242 5
-5 1197 213 1231 225 8 3 7 24 -3 76 -8 40 -19 96 -24 125 -6 28 -13 52 -17
51 -4 0 -281 -53 -617 -116z"/>
<path d="M23615 14046 c-325 -171 -595 -314 -600 -318 -8 -5 -7 -48 3 -140 8
-73 15 -133 15 -134 1 0 296 -82 655 -181 l652 -180 -1 26 c0 14 -6 75 -12
135 l-12 110 -142 35 c-78 20 -145 39 -149 44 -8 7 -52 400 -53 467 -1 35 -1
35 134 105 74 39 135 75 135 80 -1 25 -28 257 -31 259 -2 2 -270 -137 -594
-308z m164 -366 c7 -74 15 -145 18 -157 4 -18 1 -23 -13 -23 -11 0 -120 27
-244 59 l-225 58 220 111 c143 71 222 106 226 98 3 -6 12 -72 18 -146z"/>
<path d="M709 14118 c-2 -4 -96 -953 -95 -954 4 -7 202 -22 207 -16 3 4 21
162 39 352 18 190 33 346 34 346 0 1 78 -6 171 -15 l170 -16 -2 -35 c-1 -19
-14 -160 -29 -313 -14 -153 -24 -280 -21 -283 6 -6 197 -27 202 -22 2 2 17
142 34 312 16 169 32 310 35 313 10 10 276 -20 276 -31 0 -6 -14 -146 -30
-311 -16 -165 -30 -314 -30 -331 l0 -31 103 -11 c56 -5 103 -9 103 -8 3 3 92
931 89 934 -2 3 -1214 122 -1241 122 -8 0 -14 -1 -15 -2z"/>
<path d="M1105 12880 c-159 -25 -263 -75 -361 -174 -126 -127 -178 -284 -155
-473 25 -207 111 -328 294 -413 36 -17 77 -32 92 -33 26 -2 28 2 61 108 18 61
34 115 34 121 0 6 -20 17 -44 24 -71 20 -142 66 -175 114 -87 127 -53 309 73
394 84 56 139 67 331 67 152 0 176 -3 226 -23 76 -30 132 -81 166 -150 23 -47
28 -69 27 -132 0 -45 -7 -89 -16 -111 -25 -56 -83 -114 -139 -138 -38 -17 -49
-26 -45 -39 3 -9 17 -65 32 -125 30 -123 21 -118 132 -65 111 54 196 161 236
297 19 64 21 233 5 313 -42 204 -211 370 -429 423 -81 19 -265 27 -345 15z"/>
<path d="M23705 12869 c-154 -3 -360 -7 -457 -8 l-178 -1 0 -130 0 -130 88 1
c293 3 1171 25 1176 29 3 3 2 61 -1 128 l-6 122 -171 -2 c-94 -1 -297 -5 -451
-9z"/>
<path d="M23375 12356 c-156 -49 -255 -149 -311 -312 -24 -68 -28 -96 -28
-194 0 -83 5 -132 18 -175 78 -259 293 -405 621 -422 210 -11 380 46 501 166
110 108 164 245 164 416 0 219 -96 377 -285 469 -41 20 -77 36 -82 36 -4 0
-29 -53 -54 -119 l-46 -118 62 -27 c128 -56 185 -136 185 -260 0 -217 -173
-323 -481 -296 -162 14 -249 48 -317 125 -69 78 -89 183 -57 291 24 83 91 143
196 177 15 5 14 16 -5 128 -11 67 -25 124 -31 125 -5 1 -28 -3 -50 -10z"/>
<path d="M1786 11673 c-54 -7 -100 -14 -102 -16 -2 -2 7 -85 20 -186 15 -126
19 -184 12 -186 -6 -2 -240 -31 -521 -65 -280 -34 -511 -64 -513 -65 -3 -3 28
-248 31 -251 1 -1 235 28 521 63 285 35 519 63 521 61 2 -2 13 -84 25 -183 13
-99 24 -181 25 -183 2 -2 48 2 104 9 89 11 101 14 101 32 0 35 -110 931 -118
957 l-7 26 -99 -13z"/>
<path d="M22976 11068 c-14 -80 -29 -209 -24 -213 5 -5 1242 -185 1246 -181 5
6 36 245 31 249 -5 4 -1207 177 -1230 177 -11 0 -19 -11 -23 -32z"/>
<path d="M23203 10525 c-196 -35 -321 -149 -381 -345 -24 -79 -135 -560 -130
-565 4 -4 1181 -274 1209 -277 22 -3 25 8 86 272 90 390 89 494 -8 638 -97
147 -293 246 -552 281 -97 13 -132 13 -224 -4z m210 -260 c309 -54 443 -160
423 -334 -8 -71 -56 -284 -66 -294 -6 -7 -791 166 -811 179 -8 5 33 184 62
270 21 66 74 136 120 159 69 36 147 42 272 20z"/>
<path d="M1411 10409 c-327 -65 -596 -121 -598 -122 -4 -5 43 -236 50 -243 4
-5 1226 234 1235 242 2 1 -7 55 -20 121 -22 111 -25 118 -48 120 -14 0 -292
-52 -619 -118z"/>
<path d="M1591 9945 c-219 -48 -398 -160 -485 -304 -104 -172 -102 -397 4
-620 72 -149 211 -263 370 -302 87 -21 229 -15 344 15 300 78 476 249 516 503
29 179 -54 437 -180 563 -63 63 -166 121 -256 144 -76 20 -225 20 -313 1z
m345 -278 c72 -36 137 -113 163 -189 57 -167 3 -321 -144 -410 -146 -89 -366
-124 -489 -78 -136 51 -230 207 -212 354 8 68 57 166 106 210 52 47 147 95
245 123 114 32 258 28 331 -10z"/>
<path d="M22616 9372 c-3 -5 -23 -58 -45 -119 l-39 -111 302 -107 c562 -201
590 -214 627 -287 29 -56 23 -141 -16 -226 -54 -121 -147 -168 -267 -137 -53
13 -537 183 -747 261 -35 13 -65 23 -67 21 -11 -11 -83 -232 -77 -238 12 -10
703 -256 784 -279 125 -34 184 -42 243 -31 177 33 297 171 370 425 54 184 22
347 -86 442 -50 44 -92 68 -193 109 -74 31 -771 285 -781 285 -2 0 -5 -4 -8
-8z"/>
<path d="M1950 8510 c-316 -137 -575 -253 -575 -257 0 -5 19 -54 43 -110 l44
-102 76 33 c42 18 209 90 371 160 161 70 295 125 297 123 3 -3 -115 -176 -261
-385 -146 -210 -268 -388 -271 -396 -6 -16 84 -236 97 -236 8 0 1107 473 1141
491 15 8 13 18 -28 111 -24 56 -46 104 -49 106 -2 3 -162 -64 -356 -148 -457
-198 -425 -185 -413 -168 71 89 558 797 557 808 -2 17 -81 201 -91 212 -4 4
-266 -105 -582 -242z"/>
<path d="M22120 8090 c-34 -69 -51 -113 -45 -119 6 -5 183 -93 395 -195 409
-198 470 -232 496 -282 34 -62 -5 -167 -73 -199 -40 -19 -88 -19 -147 1 -27 9
-51 13 -55 8 -5 -5 -24 -55 -44 -112 l-37 -103 44 -18 c206 -89 390 -22 490
178 111 220 72 405 -112 527 -42 28 -841 424 -855 424 -2 0 -27 -49 -57 -110z"/>
<path d="M2980 6980 c-173 -45 -380 -182 -477 -318 -61 -86 -90 -157 -105
-262 -36 -256 168 -563 413 -619 62 -15 153 -13 233 4 38 8 70 16 72 17 1 2
-12 57 -31 123 -27 101 -35 120 -51 118 -11 -1 -49 -6 -85 -13 -115 -20 -213
21 -274 113 -89 136 -65 279 69 405 73 68 190 143 279 180 84 35 191 36 259 3
86 -42 158 -140 174 -238 8 -52 -17 -141 -53 -183 l-26 -32 92 -91 92 -92 30
35 c81 95 119 234 99 362 -27 180 -174 380 -331 452 -131 60 -243 70 -379 36z"/>
<path d="M21457 6853 c-29 -43 -116 -170 -192 -283 -76 -113 -171 -253 -211
-311 l-73 -106 525 -357 c289 -197 526 -357 528 -355 7 9 523 775 530 786 4 8
-21 30 -69 63 -41 28 -81 53 -89 56 -9 3 -78 -90 -210 -286 -135 -199 -201
-288 -210 -283 -6 5 -71 48 -143 97 l-132 90 179 264 179 265 -85 58 c-48 33
-87 59 -89 59 -2 0 -78 -111 -170 -247 -92 -137 -173 -254 -180 -261 -10 -11
-33 0 -128 63 l-116 77 156 232 c86 127 171 252 190 277 18 26 33 51 33 56 0
8 -78 66 -157 116 -7 5 -30 -20 -66 -70z"/>
<path d="M3485 5724 c-264 -217 -480 -399 -480 -404 0 -11 595 -740 603 -740
4 0 42 30 85 66 l78 65 -64 77 c-235 285 -377 462 -377 470 0 5 58 57 130 115
l129 107 201 -245 c129 -157 206 -243 213 -238 29 17 147 118 147 125 0 5 -87
115 -192 244 -106 129 -194 239 -196 244 -3 8 186 171 206 178 4 1 104 -115
221 -258 117 -143 215 -260 218 -260 3 0 38 26 76 58 39 31 75 60 80 64 11 7
-572 727 -588 727 -5 0 -226 -178 -490 -395z"/>
<path d="M20817 5805 c-100 -25 -167 -65 -253 -150 -88 -87 -125 -142 -161
-242 -86 -236 12 -499 258 -697 146 -117 270 -166 419 -166 164 0 267 45 390
169 151 152 204 302 169 473 -12 60 -84 218 -99 218 -9 0 -75 -39 -197 -116
l-23 -14 25 -38 c99 -151 68 -320 -78 -414 -49 -31 -56 -33 -147 -33 -81 0
-102 4 -140 24 -147 78 -288 209 -341 317 -59 120 -41 238 51 337 56 62 114
87 192 86 35 0 79 -6 98 -13 l35 -13 59 110 c55 105 57 111 40 124 -56 41
-209 60 -297 38z"/>
<path d="M4270 4783 l-443 -457 82 -78 c45 -43 86 -78 90 -78 4 0 133 130 287
289 153 159 281 287 283 286 2 -2 -43 -214 -99 -470 l-103 -466 89 -90 c49
-49 92 -88 96 -87 4 2 203 205 443 453 l435 449 -82 84 -83 83 -297 -303
c-164 -167 -296 -296 -293 -288 2 8 52 226 110 485 l105 470 -88 88 -88 88
-444 -458z"/>
<path d="M19917 4932 l-88 -89 443 -451 443 -451 88 87 c48 47 87 89 87 93 0
6 -868 893 -879 897 -3 1 -46 -38 -94 -86z"/>
<path d="M5519 4387 c-18 -23 -48 -61 -66 -83 l-34 -42 146 -113 c80 -62 145
-117 145 -121 0 -5 -145 -193 -321 -420 -313 -400 -321 -412 -301 -427 11 -9
56 -44 101 -79 l80 -62 317 407 c174 225 321 412 325 417 4 5 70 -40 146 -99
76 -60 143 -112 148 -116 10 -7 119 123 130 153 2 8 -131 118 -318 264 -177
139 -354 277 -394 308 l-71 56 -33 -43z"/>
<path d="M19139 4216 l-97 -83 405 -477 c223 -262 409 -476 414 -474 16 5 668
563 668 572 1 9 -117 149 -129 154 -5 2 -358 -292 -465 -389 -21 -18 -24 -15
-340 358 -176 207 -329 387 -340 400 l-20 23 -96 -84z"/>
<path d="M18655 3814 c-202 -31 -427 -189 -514 -361 -50 -99 -65 -270 -35
-386 52 -200 219 -425 381 -509 172 -91 341 -91 528 1 185 91 321 251 356 420
18 87 7 233 -24 320 -80 225 -276 432 -463 491 -64 19 -177 31 -229 24z m165
-266 c101 -49 228 -202 282 -336 33 -84 32 -218 -2 -287 -33 -67 -93 -125
-166 -161 -51 -25 -70 -29 -144 -29 -74 0 -93 4 -138 27 -29 15 -69 41 -90 58
-56 44 -135 153 -179 245 -36 75 -38 86 -38 175 0 83 3 101 27 145 86 165 292
239 448 163z"/>
<path d="M6407 3643 c-29 -48 -178 -289 -330 -535 -153 -246 -277 -451 -277
-455 1 -9 210 -137 214 -132 2 2 58 94 126 204 68 110 130 210 137 222 l15 22
58 -39 c68 -46 104 -87 120 -136 7 -20 17 -157 24 -310 l11 -273 128 -80 127
-80 0 222 c0 249 -9 330 -44 417 -14 33 -21 60 -17 60 5 0 28 -7 52 -16 24 -9
78 -16 119 -17 93 -1 163 28 228 94 71 72 105 148 110 250 9 177 -48 239 -458
494 -151 94 -277 171 -281 173 -4 2 -32 -37 -62 -85z m318 -325 c168 -105 190
-122 209 -163 33 -69 6 -156 -63 -202 -47 -32 -98 -30 -172 8 -70 35 -286 167
-294 178 -2 5 32 67 77 140 61 100 85 130 97 126 9 -4 74 -43 146 -87z"/>
<path d="M17490 3125 c-85 -29 -596 -289 -593 -302 1 -7 198 -392 460 -901
l114 -223 110 57 c60 31 109 61 109 67 0 5 -48 101 -106 214 -58 112 -104 206
-103 207 2 2 61 32 131 69 163 84 227 127 282 188 65 72 89 142 84 249 -3 73
-8 95 -39 160 -48 99 -105 162 -182 200 -90 44 -169 49 -267 15z m117 -236
c38 -14 71 -46 94 -91 37 -73 19 -151 -49 -209 -42 -36 -267 -158 -275 -149
-7 7 -157 309 -157 315 0 6 213 113 260 131 44 16 90 17 127 3z"/>
<path d="M7369 2452 l-486 -467 120 -58 121 -58 105 105 c59 59 111 106 117
106 5 0 109 -47 230 -104 l219 -103 -2 -109 c-1 -60 -5 -130 -8 -155 l-5 -46
121 -57 c71 -33 125 -53 128 -47 4 5 21 288 39 628 19 340 36 641 39 670 l6
51 -109 52 c-60 28 -118 53 -129 55 -15 3 -130 -102 -506 -463z m471 -102
c-12 -134 -22 -245 -24 -247 -3 -4 -294 132 -304 141 -3 4 72 85 168 181 96
96 175 173 177 171 2 -1 -6 -112 -17 -246z"/>
<path d="M8662 2493 c-172 -507 -383 -1135 -380 -1137 2 -2 191 -66 421 -144
412 -140 418 -141 426 -119 43 115 60 171 54 177 -4 4 -138 52 -298 106 -159
53 -292 99 -293 100 -2 1 71 224 162 495 92 270 165 493 163 495 -4 4 -225 84
-232 84 -2 0 -12 -26 -23 -57z"/>
<path d="M15730 2388 c-69 -22 -126 -41 -128 -43 -6 -6 -82 -1348 -77 -1354 3
-3 61 13 128 35 l122 40 6 152 c3 83 7 153 10 155 4 4 329 110 436 143 l43 13
87 -107 c47 -59 92 -113 98 -120 9 -10 37 -4 143 30 l131 43 -415 500 c-229
275 -425 512 -437 526 l-22 26 -125 -39z m235 -474 c81 -103 149 -192 151
-198 3 -8 -53 -30 -157 -63 l-162 -51 6 186 c4 103 7 215 7 250 0 34 2 62 4
62 3 0 70 -84 151 -186z"/>
<path d="M9546 1615 c-76 -339 -136 -618 -134 -621 5 -5 931 -215 934 -211 5
7 45 199 42 203 -3 2 -157 38 -344 80 -186 42 -340 77 -341 78 -4 3 70 322 77
329 6 6 235 -41 562 -118 l57 -13 21 94 c12 52 20 99 18 106 -2 6 -138 41
-301 78 -164 37 -300 70 -304 73 -5 6 43 251 53 268 2 3 148 -27 326 -68 178
-40 328 -73 333 -73 9 0 60 199 53 205 -2 1 -199 46 -438 99 -239 54 -444 100
-456 102 -19 5 -27 -27 -158 -611z"/>
<path d="M14337 2025 c-59 -12 -109 -24 -112 -26 -4 -4 244 -1221 251 -1228 3
-3 853 168 865 175 10 6 -34 204 -46 204 -5 0 -144 -27 -308 -61 -164 -34
-301 -59 -304 -56 -3 3 -50 223 -104 489 -119 581 -107 528 -122 527 -6 -1
-60 -11 -120 -24z"/>
<path d="M11309 1898 c0 -13 -17 -295 -38 -628 -21 -333 -36 -607 -34 -610 2
-2 129 -12 281 -21 354 -22 440 -13 558 56 94 55 192 199 230 340 25 93 31
353 9 449 -32 148 -118 276 -226 339 -78 46 -183 65 -440 82 -327 21 -339 21
-340 -7z m531 -227 c70 -15 96 -27 138 -66 64 -58 85 -118 90 -265 5 -159 -14
-278 -60 -369 -59 -118 -111 -136 -345 -126 -90 4 -163 8 -163 9 0 0 11 181
25 401 14 220 25 409 25 420 0 20 4 20 123 13 67 -4 142 -12 167 -17z"/>
<path d="M12945 1888 c-203 -11 -373 -23 -376 -26 -7 -9 56 -1250 64 -1258 6
-7 894 34 935 42 23 5 23 6 17 107 -4 56 -8 103 -9 104 -1 1 -159 -6 -352 -16
-192 -10 -350 -18 -351 -17 -2 1 -20 340 -19 343 1 1 143 9 316 19 173 9 316
17 318 19 2 1 0 48 -4 104 l-7 101 -76 0 c-42 -1 -184 -7 -316 -14 -132 -8
-241 -13 -241 -12 -1 0 -5 64 -9 142 l-7 140 259 12 c142 7 295 15 341 19 l82
6 0 51 c0 28 -3 75 -6 104 l-7 52 -91 -1 c-50 -1 -257 -10 -461 -21z"/>
</g>
</svg>
